<svg viewBox="0 0 216 216" fill="currentColor" xmlns="http://www.w3.org/2000/svg"><g transform="translate(0.000000,216.000000) scale(0.100000,-0.100000)" fill="currentColor"><path fill-rule="evenodd" d="M1015 1926 c-29 -13 -93 -73 -84 -79 2 -1 24 -16 49 -31 25 -16 57 -40 73 -54 l27 -26 28 26 c15 14 47 38 72 54 25 15 47 30 49 31 3 2 -9 17 -25 34 -52 56 -125 73 -189 45z M740 1632 l0 -249 31 -47 c55 -83 173 -160 263 -172 l45 -7 15 54 c82 282 55 433 -97 549 -48 35 -169 95 -234 115 l-23 6 0 -249z M1324 1847 c-85 -35 -169 -84 -199 -116 -16 -19 -15 -23 17 -88 31 -64 33 -73 32 -173 -1 -79 -7 -129 -27 -204 -15 -55 -25 -101 -23 -103 7 -7 108 36 157 67 48 31 104 91 128 137 12 25 16 513 4 513 -5 0 -45 -15 -89 -33z M470 1160 c-30 -5 -84 -15 -120 -22 l-65 -14 -3 -49 c-10 -159 84 -330 218 -394 49 -23 66 -26 160 -25 103 1 205 24 212 48 2 6 -107 73 -241 150 -134 78 -247 147 -249 155 -3 10 5 8 29 -7 19 -12 119 -71 222 -130 104 -59 236 -139 295 -177 88 -58 108 -76 110 -98 3 -25 1 -27 -22 -21 -30 7 -56 -10 -56 -36 0 -10 18 -32 40 -50 l39 -31 3 -111 c3 -93 6 -113 21 -122 12 -8 22 -8 35 0 15 10 17 33 20 202 l2 191 38 30 c21 16 126 80 232 142 107 61 237 138 289 170 52 33 96 57 99 54 10 -10 -14 -25 -253 -163 -131 -75 -237 -141 -236 -147 4 -25 106 -48 211 -49 90 -1 112 2 157 23 65 29 146 113 178 183 27 61 48 167 43 223 l-3 39 -85 17 c-292 59 -438 16 -514 -152 -15 -31 -31 -92 -37 -136 l-12 -80 -53 -31 -54 -31 0 114 0 113 40 32 c22 17 40 40 40 50 0 26 -26 43 -55 36 -23 -6 -25 -4 -25 29 0 34 -1 35 -40 35 l-40 0 0 -204 0 -205 -54 31 -53 31 -12 79 c-20 147 -82 243 -185 289 -57 25 -177 33 -266 19z"/></g></svg>
