<svg viewBox="0 0 216 216" fill="currentColor" xmlns="http://www.w3.org/2000/svg"><g transform="translate(0.000000,216.000000) scale(0.100000,-0.100000)" fill="currentColor"><path fill-rule="evenodd" d="M1035 1774 c-91 -80 -173 -143 -220 -169 -27 -15 -58 -34 -69 -43 -35 -32 -59 -94 -60 -156 l-1 -60 60 -35 c33 -20 78 -54 100 -77 l39 -41 63 78 c35 43 73 85 85 93 53 37 102 10 187 -102 l54 -71 41 42 c23 23 68 58 101 78 l60 35 -1 60 c-1 71 -29 131 -77 168 -19 14 -37 26 -41 26 -16 0 -117 73 -192 140 -43 38 -81 70 -84 69 -3 0 -23 -16 -45 -35z M1025 1313 c-145 -142 -191 -313 -122 -449 27 -52 94 -122 145 -148 28 -14 31 -14 73 13 61 39 123 109 144 163 28 74 19 186 -22 269 -29 59 -143 199 -162 199 -4 0 -29 -21 -56 -47z M502 1311 c-54 -25 -102 -59 -102 -72 0 -5 23 -34 51 -65 32 -35 67 -90 94 -150 53 -115 123 -190 217 -234 61 -29 118 -39 118 -22 0 5 -9 35 -20 66 -30 89 -33 141 -12 241 19 89 19 90 0 117 -24 34 -92 90 -138 113 -54 28 -156 30 -208 6z M1442 1299 c-65 -32 -157 -122 -148 -146 3 -7 13 -52 21 -99 18 -92 15 -133 -16 -223 -26 -74 -25 -75 22 -67 116 19 227 116 293 259 26 56 64 116 95 152 28 32 51 62 51 66 0 4 -13 17 -29 28 -97 69 -191 79 -289 30z M339 1026 c-41 -11 -88 -37 -131 -74 -16 -13 -13 -16 30 -38 58 -29 116 -86 179 -179 69 -99 112 -120 253 -120 94 0 111 3 165 28 59 28 95 53 95 67 0 4 -20 10 -45 12 -110 13 -267 121 -350 242 -33 49 -43 56 -87 65 -57 13 -51 13 -109 -3z M1698 1027 c-26 -9 -49 -29 -80 -72 -90 -122 -235 -220 -343 -233 -25 -2 -45 -8 -45 -12 0 -14 36 -39 95 -67 54 -25 71 -28 165 -28 141 0 184 21 253 120 64 93 121 150 180 180 l48 24 -43 32 c-79 58 -162 78 -230 56z M923 685 c-8 -22 -84 -73 -134 -90 -23 -9 -82 -20 -132 -25 -107 -12 -149 -30 -177 -75 -29 -46 -37 -95 -17 -95 36 0 132 45 169 78 35 32 47 36 111 41 86 7 137 34 212 111 41 42 47 52 35 60 -23 15 -60 12 -67 -5z M1009 662 c-39 -35 -36 -55 22 -136 40 -55 42 -57 60 -40 35 32 79 107 79 136 0 21 -8 33 -32 48 -47 29 -91 26 -129 -8z M1165 670 c-10 -16 96 -115 153 -144 37 -19 67 -26 108 -26 49 0 61 -4 92 -31 37 -32 115 -72 165 -83 35 -8 36 12 5 74 -31 61 -68 79 -192 95 -120 16 -176 37 -233 89 -40 35 -85 47 -98 26z M888 540 c-63 -56 -91 -96 -106 -152 l-10 -36 60 48 c33 26 86 62 119 80 32 17 59 34 59 38 -1 7 -57 72 -63 72 -2 0 -28 -23 -59 -50z M1170 545 c-29 -30 -32 -37 -20 -45 8 -5 19 -10 23 -10 11 0 131 -80 175 -116 75 -62 4 84 -76 156 -31 27 -59 50 -62 50 -3 0 -22 -16 -40 -35z"/></g></svg>
